<svg xmlns="http://www.w3.org/2000/svg" viewBox="0 0 24 24" width="600" height="600">
  <defs>
    <clipPath id="clip-left">
      <rect width="13" height="24" x="0" y="0"></rect>
    </clipPath>
    <clipPath id="clip-right">
      <rect width="12" height="24" x="12" y="0"></rect>
    </clipPath>
  </defs>
  <rect width="600" height="600" fill="#6183fa" opacity="0.2"></rect>
  <svg viewBox="-3 -3 30 30">
    <g style="fill: #f4511e" clip-path="url(#clip-left)"><path d="M 21.999999,17.773502 12,23.547005 2.0000006,17.773502 l 0,-11.5470044 L 12,0.4529953 21.999999,6.2264977 Z"></path></g>
    <g style="fill: #e64a19" clip-path="url(#clip-right)"><path d="M 21.999999,17.773502 12,23.547005 2.0000006,17.773502 l 0,-11.5470044 L 12,0.4529953 21.999999,6.2264977 Z"></path></g>
    <g style="fill: #64b5f6" clip-path="url(#clip-left)">
      <path d="M 12,6.5 A 7,7 0 0 0 6.2617188,9.494141 7,7 0 0 0 12,12.5 7,7 0 0 0 17.738281,9.505859 7,7 0 0 0 12,6.5 Z M 12,7 c 1.383333,0 2.5,1.116667 2.5,2.5 C 14.5,10.883333 13.383333,12 12,12 10.616667,12 9.5,10.883333 9.5,9.5 9.5,8.116667 10.616667,7 12,7 Z m 0,1 c -0.83,0 -1.5,0.67 -1.5,1.5 0,0.83 0.67,1.5 1.5,1.5 0.83,0 1.5,-0.67 1.5,-1.5 C 13.5,8.67 12.83,8 12,8 Z"></path>
    </g>
    <g style="fill: #42a5f5" clip-path="url(#clip-right)">
      <path d="M 12,6.5 A 7,7 0 0 0 6.2617188,9.494141 7,7 0 0 0 12,12.5 7,7 0 0 0 17.738281,9.505859 7,7 0 0 0 12,6.5 Z M 12,7 c 1.383333,0 2.5,1.116667 2.5,2.5 C 14.5,10.883333 13.383333,12 12,12 10.616667,12 9.5,10.883333 9.5,9.5 9.5,8.116667 10.616667,7 12,7 Z m 0,1 c -0.83,0 -1.5,0.67 -1.5,1.5 0,0.83 0.67,1.5 1.5,1.5 0.83,0 1.5,-0.67 1.5,-1.5 C 13.5,8.67 12.83,8 12,8 Z"></path>
    </g>
    <g style="fill: #4fc3f7" clip-path="url(#clip-left)">
      <path d="m 12,17.5 c 2.33,0 4.31,-1.46 5.11,-3.5 H 6.89 c 0.8,2.04 2.78,3.5 5.11,3.5 z"></path><path d="m 8,15 1,5 1,-5 z"></path><path d="m 14,15 1,5 1,-5 z"></path>
    </g>
    <g style="fill: #29b6f6" clip-path="url(#clip-right)">
      <path d="m 12,17.5 c 2.33,0 4.31,-1.46 5.11,-3.5 H 6.89 c 0.8,2.04 2.78,3.5 5.11,3.5 z"></path><path d="m 8,15 1,5 1,-5 z"></path><path d="m 14,15 1,5 1,-5 z"></path>
    </g>
  </svg>
</svg>