<svg xmlns="http://www.w3.org/2000/svg" viewBox="0 0 24 24" width="600" height="600">
  <defs>
    <clipPath id="clip-left">
      <rect width="13" height="24" x="0" y="0"></rect>
    </clipPath>
    <clipPath id="clip-right">
      <rect width="12" height="24" x="12" y="0"></rect>
    </clipPath>
  </defs>
  <rect width="600" height="600" fill="#6183fa" opacity="0.2"></rect>
  <svg viewBox="-3 -3 30 30">
    <g style="fill: #1e88e5" clip-path="url(#clip-left)"><path d="M 6,4.1450726 3,21 12,23 21,21 18,4.1450726 c -1.040085,-4.35794012 -11.004045,-4.17303435 -12,0 z"></path><path d="M 3.5,19 C 4.33,19 5,18.33 5,17.5 5,16.67 4.33,16 3.5,16 2.67,16 2,16.67 2,17.5 2,18.33 2.67,19 3.5,19 Z"></path><path d="M 4.5,15 C 5.33,15 6,14.33 6,13.5 6,12.67 5.33,12 4.5,12 3.67,12 3,12.67 3,13.5 3,14.33 3.67,15 4.5,15 Z"></path><path d="M 20.5,19 C 19.67,19 19,18.33 19,17.5 19,16.67 19.67,16 20.5,16 c 0.83,0 1.5,0.67 1.5,1.5 0,0.83 -0.67,1.5 -1.5,1.5 z"></path><path d="M 19.5,15 C 18.67,15 18,14.33 18,13.5 18,12.67 18.67,12 19.5,12 c 0.83,0 1.5,0.67 1.5,1.5 0,0.83 -0.67,1.5 -1.5,1.5 z"></path></g>
    <g style="fill: #1976d2" clip-path="url(#clip-right)"><path d="M 6,4.1450726 3,21 12,23 21,21 18,4.1450726 c -1.040085,-4.35794012 -11.004045,-4.17303435 -12,0 z"></path><path d="M 3.5,19 C 4.33,19 5,18.33 5,17.5 5,16.67 4.33,16 3.5,16 2.67,16 2,16.67 2,17.5 2,18.33 2.67,19 3.5,19 Z"></path><path d="M 4.5,15 C 5.33,15 6,14.33 6,13.5 6,12.67 5.33,12 4.5,12 3.67,12 3,12.67 3,13.5 3,14.33 3.67,15 4.5,15 Z"></path><path d="M 20.5,19 C 19.67,19 19,18.33 19,17.5 19,16.67 19.67,16 20.5,16 c 0.83,0 1.5,0.67 1.5,1.5 0,0.83 -0.67,1.5 -1.5,1.5 z"></path><path d="M 19.5,15 C 18.67,15 18,14.33 18,13.5 18,12.67 18.67,12 19.5,12 c 0.83,0 1.5,0.67 1.5,1.5 0,0.83 -0.67,1.5 -1.5,1.5 z"></path></g>
    <g style="fill: #ffb74d" clip-path="url(#clip-left)">
      <path d="M 15.5,11 C 16.33,11 17,10.33 17,9.5 17,8.67 16.33,8 15.5,8 14.67,8 14,8.67 14,9.5 c 0,0.83 0.67,1.5 1.5,1.5 z"></path><path d="M 8.5,11 C 9.33,11 10,10.33 10,9.5 10,8.67 9.33,8 8.5,8 7.67,8 7,8.67 7,9.5 7,10.33 7.67,11 8.5,11 Z"></path><path d="M 15.5,11 C 16.33,11 17,10.33 17,9.5 17,8.67 16.33,8 15.5,8 14.67,8 14,8.67 14,9.5 c 0,0.83 0.67,1.5 1.5,1.5 z"></path>
    </g>
    <g style="fill: #ffa726" clip-path="url(#clip-right)">
      <path d="M 15.5,11 C 16.33,11 17,10.33 17,9.5 17,8.67 16.33,8 15.5,8 14.67,8 14,8.67 14,9.5 c 0,0.83 0.67,1.5 1.5,1.5 z"></path><path d="M 8.5,11 C 9.33,11 10,10.33 10,9.5 10,8.67 9.33,8 8.5,8 7.67,8 7,8.67 7,9.5 7,10.33 7.67,11 8.5,11 Z"></path><path d="M 15.5,11 C 16.33,11 17,10.33 17,9.5 17,8.67 16.33,8 15.5,8 14.67,8 14,8.67 14,9.5 c 0,0.83 0.67,1.5 1.5,1.5 z"></path>
    </g>
    <g style="fill: #ffd54f" clip-path="url(#clip-left)">
      <path d="m 12,14 c 2.33,0 4.31,1.46 5.11,3.5 H 6.89 C 7.69,15.46 9.67,14 12,14 Z"></path><path d="m 8,16 1,5 1,-5 z"></path><path d="m 14,16 1,5 1,-5 z"></path>
    </g>
    <g style="fill: #ffca28" clip-path="url(#clip-right)">
      <path d="m 12,14 c 2.33,0 4.31,1.46 5.11,3.5 H 6.89 C 7.69,15.46 9.67,14 12,14 Z"></path><path d="m 8,16 1,5 1,-5 z"></path><path d="m 14,16 1,5 1,-5 z"></path>
    </g>
  </svg>
</svg>