<svg xmlns="http://www.w3.org/2000/svg" viewBox="0 0 24 24" width="600" height="600">
  <defs>
    <clipPath id="clip-left">
      <rect width="13" height="24" x="0" y="0"></rect>
    </clipPath>
    <clipPath id="clip-right">
      <rect width="12" height="24" x="12" y="0"></rect>
    </clipPath>
  </defs>
  <rect width="600" height="600" fill="#6183fa" opacity="0.2"></rect>
  <svg viewBox="-3 -3 30 30">
    <g style="fill: #ffb300" clip-path="url(#clip-left)"><path d="M 21.999999,17.773502 12,23.547005 2.0000006,17.773502 l 0,-11.5470044 L 12,0.4529953 21.999999,6.2264977 Z"></path></g>
    <g style="fill: #ffa000" clip-path="url(#clip-right)"><path d="M 21.999999,17.773502 12,23.547005 2.0000006,17.773502 l 0,-11.5470044 L 12,0.4529953 21.999999,6.2264977 Z"></path></g>
    <g style="fill: #64b5f6" clip-path="url(#clip-left)">
      <rect width="6" height="1" x="9.7279215" y="0.20710692" transform="rotate(45)"></rect><rect transform="rotate(135)" y="-13.227921" x="-2.2928932" height="1" width="6"></rect><rect transform="rotate(45)" y="-4.7426405" x="14.67767" height="1" width="6"></rect><rect width="6" height="1" x="-7.2426405" y="-18.17767" transform="rotate(135)"></rect>
    </g>
    <g style="fill: #42a5f5" clip-path="url(#clip-right)">
      <rect width="6" height="1" x="9.7279215" y="0.20710692" transform="rotate(45)"></rect><rect transform="rotate(135)" y="-13.227921" x="-2.2928932" height="1" width="6"></rect><rect transform="rotate(45)" y="-4.7426405" x="14.67767" height="1" width="6"></rect><rect width="6" height="1" x="-7.2426405" y="-18.17767" transform="rotate(135)"></rect>
    </g>
    <g style="fill: #64b5f6" clip-path="url(#clip-left)">
      <path d="m 12,17.5 c 2.33,0 4.31,-1.46 5.11,-3.5 H 6.89 c 0.8,2.04 2.78,3.5 5.11,3.5 z"></path>
    </g>
    <g style="fill: #42a5f5" clip-path="url(#clip-right)">
      <path d="m 12,17.5 c 2.33,0 4.31,-1.46 5.11,-3.5 H 6.89 c 0.8,2.04 2.78,3.5 5.11,3.5 z"></path>
    </g>
  </svg>
</svg>